<svg xmlns="http://www.w3.org/2000/svg" width="1005" height="600"><rect width="1005" height="600" x="0" y="0" fill="#FFFFFF" id="backgorund"/><g transform="translate(50,10)" id="viz"><g id="y axis" fill="none" font-size="10" font-family="sans-serif" text-anchor="end"><path class="domain" stroke="currentColor" d="M-6,560.5H0.5V0.5H-6"/><g class="tick" opacity="1" transform="translate(0,560.5)"><line stroke="currentColor" x2="-6"/><text fill="currentColor" x="-9" dy="0.32em">0.0</text></g><g class="tick" opacity="1" transform="translate(0,504.5)"><line stroke="currentColor" x2="-6"/><text fill="currentColor" x="-9" dy="0.32em">0.5</text></g><g class="tick" opacity="1" transform="translate(0,448.5)"><line stroke="currentColor" x2="-6"/><text fill="currentColor" x="-9" dy="0.32em">1.0</text></g><g class="tick" opacity="1" transform="translate(0,392.5)"><line stroke="currentColor" x2="-6"/><text fill="currentColor" x="-9" dy="0.32em">1.5</text></g><g class="tick" opacity="1" transform="translate(0,336.5)"><line stroke="currentColor" x2="-6"/><text fill="currentColor" x="-9" dy="0.32em">2.0</text></g><g class="tick" opacity="1" transform="translate(0,280.5)"><line stroke="currentColor" x2="-6"/><text fill="currentColor" x="-9" dy="0.32em">2.5</text></g><g class="tick" opacity="1" transform="translate(0,224.5)"><line stroke="currentColor" x2="-6"/><text fill="currentColor" x="-9" dy="0.32em">3.0</text></g><g class="tick" opacity="1" transform="translate(0,168.50000000000003)"><line stroke="currentColor" x2="-6"/><text fill="currentColor" x="-9" dy="0.32em">3.5</text></g><g class="tick" opacity="1" transform="translate(0,112.49999999999997)"><line stroke="currentColor" x2="-6"/><text fill="currentColor" x="-9" dy="0.32em">4.0</text></g><g class="tick" opacity="1" transform="translate(0,56.499999999999986)"><line stroke="currentColor" x2="-6"/><text fill="currentColor" x="-9" dy="0.32em">4.5</text></g><g class="tick" opacity="1" transform="translate(0,0.5)"><line stroke="currentColor" x2="-6"/><text fill="currentColor" x="-9" dy="0.32em">5.0</text></g><text x="4" text-anchor="start" dominant-baseline="hanging" style="font-family: Arial, sans-serif; font-size: 12px; fill: rgb(123, 123, 123); font-weight: bold;">value</text></g><g id="x axis" transform="translate(0,560)" fill="none" font-size="10" font-family="sans-serif" text-anchor="middle"><path class="domain" stroke="currentColor" d="M0.5,6V0.5H745.5V6"/><g class="tick" opacity="1" transform="translate(63.5,0)"><line stroke="currentColor" y2="6"/><text fill="currentColor" y="9" dy="0.71em">Bebida</text></g><g class="tick" opacity="1" transform="translate(187.5,0)"><line stroke="currentColor" y2="6"/><text fill="currentColor" y="9" dy="0.71em">Alimentacion</text></g><g class="tick" opacity="1" transform="translate(311.5,0)"><line stroke="currentColor" y2="6"/><text fill="currentColor" y="9" dy="0.71em">Descanso</text></g><g class="tick" opacity="1" transform="translate(435.5,0)"><line stroke="currentColor" y2="6"/><text fill="currentColor" y="9" dy="0.71em">Ejercicio</text></g><g class="tick" opacity="1" transform="translate(559.5,0)"><line stroke="currentColor" y2="6"/><text fill="currentColor" y="9" dy="0.71em">Meditacion</text></g><g class="tick" opacity="1" transform="translate(683.5,0)"><line stroke="currentColor" y2="6"/><text fill="currentColor" y="9" dy="0.71em">Esparcimiento</text></g></g><g id="boxplots"><g><line x1="63" x2="63" y1="224" y2="560" stroke="#ff7f0e" stroke-dasharray="4"/><line x1="53" x2="73" y1="224" y2="224" stroke="#ff7f0e"/><line x1="53" x2="73" y1="560" y2="560" stroke="#ff7f0e"/><rect x="53" y="266" width="20" height="140" fill="#ff7f0e"/><line x1="53" y1="336" x2="73" y2="336" stroke="#FFFFFF"/></g><g><line x1="187" x2="187" y1="111.99999999999997" y2="560" stroke="#1f77b4" stroke-dasharray="4"/><line x1="177" x2="197" y1="111.99999999999997" y2="111.99999999999997" stroke="#1f77b4"/><line x1="177" x2="197" y1="560" y2="560" stroke="#1f77b4"/><rect x="177" y="210" width="20" height="140" fill="#1f77b4"/><line x1="177" y1="280" x2="197" y2="280" stroke="#FFFFFF"/></g><g><line x1="311" x2="311" y1="111.99999999999997" y2="553" stroke="#2ca02c" stroke-dasharray="4"/><line x1="301" x2="321" y1="111.99999999999997" y2="111.99999999999997" stroke="#2ca02c"/><line x1="301" x2="321" y1="553" y2="553" stroke="#2ca02c"/><rect x="301" y="168.00000000000003" width="20" height="153.99999999999997" fill="#2ca02c"/><line x1="301" y1="251.99999999999997" x2="321" y2="251.99999999999997" stroke="#FFFFFF"/><circle r="1" cx="311" cy="560" fill="#FFFFFF" stroke="#2ca02c"/></g><g><line x1="435" x2="435" y1="33.599999999999966" y2="560" stroke="#d62728" stroke-dasharray="4"/><line x1="425" x2="445" y1="33.599999999999966" y2="33.599999999999966" stroke="#d62728"/><line x1="425" x2="445" y1="560" y2="560" stroke="#d62728"/><rect x="425" y="111.99999999999997" width="20" height="268.79999999999995" fill="#d62728"/><line x1="425" y1="257.59999999999997" x2="445" y2="257.59999999999997" stroke="#FFFFFF"/></g><g><line x1="559" x2="559" y1="336" y2="560" stroke="#8c564b" stroke-dasharray="4"/><line x1="549" x2="569" y1="336" y2="336" stroke="#8c564b"/><line x1="549" x2="569" y1="560" y2="560" stroke="#8c564b"/><rect x="549" y="420" width="20" height="140" fill="#8c564b"/><line x1="549" y1="504" x2="569" y2="504" stroke="#FFFFFF"/></g><g><line x1="683" x2="683" y1="0" y2="560" stroke="#9467bd" stroke-dasharray="4"/><line x1="673" x2="693" y1="0" y2="0" stroke="#9467bd"/><line x1="673" x2="693" y1="560" y2="560" stroke="#9467bd"/><rect x="673" y="196" width="20" height="252" fill="#9467bd"/><line x1="673" y1="280" x2="693" y2="280" stroke="#FFFFFF"/></g></g><g id="boxplots"><g><text x="77" y="224" dominant-baseline="middle" style="font-family: Arial, sans-serif; font-size: 10px; fill: black; font-weight: normal;">3</text><text x="77" y="560" dominant-baseline="middle" style="font-family: Arial, sans-serif; font-size: 10px; fill: black; font-weight: normal;">0</text><text x="77" y="336" dominant-baseline="middle" style="font-family: Arial, sans-serif; font-size: 10px; fill: black; font-weight: normal;">2</text><text x="49" y="406" dominant-baseline="middle" text-anchor="end" style="font-family: Arial, sans-serif; font-size: 10px; fill: black; font-weight: normal;">1.375</text><text x="59" y="266" dominant-baseline="middle" text-anchor="end" style="font-family: Arial, sans-serif; font-size: 10px; fill: black; font-weight: normal;">2.625</text></g><g><text x="201" y="111.99999999999997" dominant-baseline="middle" style="font-family: Arial, sans-serif; font-size: 10px; fill: black; font-weight: normal;">4</text><text x="201" y="560" dominant-baseline="middle" style="font-family: Arial, sans-serif; font-size: 10px; fill: black; font-weight: normal;">0</text><text x="201" y="280" dominant-baseline="middle" style="font-family: Arial, sans-serif; font-size: 10px; fill: black; font-weight: normal;">2.5</text><text x="173" y="350" dominant-baseline="middle" text-anchor="end" style="font-family: Arial, sans-serif; font-size: 10px; fill: black; font-weight: normal;">1.875</text><text x="183" y="210" dominant-baseline="middle" text-anchor="end" style="font-family: Arial, sans-serif; font-size: 10px; fill: black; font-weight: normal;">3.125</text></g><g><text x="325" y="111.99999999999997" dominant-baseline="middle" style="font-family: Arial, sans-serif; font-size: 10px; fill: black; font-weight: normal;">4</text><text x="325" y="553" dominant-baseline="middle" style="font-family: Arial, sans-serif; font-size: 10px; fill: black; font-weight: normal;">0.0625</text><text x="325" y="251.99999999999997" dominant-baseline="middle" style="font-family: Arial, sans-serif; font-size: 10px; fill: black; font-weight: normal;">2.75</text><text x="297" y="322" dominant-baseline="middle" text-anchor="end" style="font-family: Arial, sans-serif; font-size: 10px; fill: black; font-weight: normal;">2.125</text><text x="307" y="168.00000000000003" dominant-baseline="middle" text-anchor="end" style="font-family: Arial, sans-serif; font-size: 10px; fill: black; font-weight: normal;">3.5</text></g><g><text x="449" y="33.599999999999966" dominant-baseline="middle" style="font-family: Arial, sans-serif; font-size: 10px; fill: black; font-weight: normal;">4.7</text><text x="449" y="560" dominant-baseline="middle" style="font-family: Arial, sans-serif; font-size: 10px; fill: black; font-weight: normal;">0</text><text x="449" y="257.59999999999997" dominant-baseline="middle" style="font-family: Arial, sans-serif; font-size: 10px; fill: black; font-weight: normal;">2.7</text><text x="421" y="380.79999999999995" dominant-baseline="middle" text-anchor="end" style="font-family: Arial, sans-serif; font-size: 10px; fill: black; font-weight: normal;">1.6</text><text x="431" y="111.99999999999997" dominant-baseline="middle" text-anchor="end" style="font-family: Arial, sans-serif; font-size: 10px; fill: black; font-weight: normal;">4</text></g><g><text x="573" y="336" dominant-baseline="middle" style="font-family: Arial, sans-serif; font-size: 10px; fill: black; font-weight: normal;">2</text><text x="573" y="560" dominant-baseline="middle" style="font-family: Arial, sans-serif; font-size: 10px; fill: black; font-weight: normal;">0</text><text x="573" y="504" dominant-baseline="middle" style="font-family: Arial, sans-serif; font-size: 10px; fill: black; font-weight: normal;">0.5</text><text x="545" y="560" dominant-baseline="middle" text-anchor="end" style="font-family: Arial, sans-serif; font-size: 10px; fill: black; font-weight: normal;">0</text><text x="555" y="420" dominant-baseline="middle" text-anchor="end" style="font-family: Arial, sans-serif; font-size: 10px; fill: black; font-weight: normal;">1.25</text></g><g><text x="697" y="0" dominant-baseline="middle" style="font-family: Arial, sans-serif; font-size: 10px; fill: black; font-weight: normal;">5</text><text x="697" y="560" dominant-baseline="middle" style="font-family: Arial, sans-serif; font-size: 10px; fill: black; font-weight: normal;">0</text><text x="697" y="280" dominant-baseline="middle" style="font-family: Arial, sans-serif; font-size: 10px; fill: black; font-weight: normal;">2.5</text><text x="669" y="448" dominant-baseline="middle" text-anchor="end" style="font-family: Arial, sans-serif; font-size: 10px; fill: black; font-weight: normal;">1</text><text x="679" y="196" dominant-baseline="middle" text-anchor="end" style="font-family: Arial, sans-serif; font-size: 10px; fill: black; font-weight: normal;">3.25</text></g></g></g><g id="legend" transform="translate(805,10)"><g transform="translate(5,0)"><g class="legendColor" transform="translate(0,0)"><g class="legendCells" transform="translate(0,16)"><g class="cell" transform="translate(0, 0)"><rect class="swatch" height="15" width="15" style="fill: rgb(31, 119, 180);"/><text class="label" transform="translate( 20, 12.5)" font-family="&quot;Arial&quot;, sans-serif" font-size="10px"><tspan x="0" dy="0em">Alimentacion</tspan></text></g><g class="cell" transform="translate(0, 21)"><rect class="swatch" height="15" width="15" style="fill: rgb(255, 127, 14);"/><text class="label" transform="translate( 20, 12.5)" font-family="&quot;Arial&quot;, sans-serif" font-size="10px"><tspan x="0" dy="0em">Bebida</tspan></text></g><g class="cell" transform="translate(0, 42)"><rect class="swatch" height="15" width="15" style="fill: rgb(44, 160, 44);"/><text class="label" transform="translate( 20, 12.5)" font-family="&quot;Arial&quot;, sans-serif" font-size="10px"><tspan x="0" dy="0em">Descanso</tspan></text></g><g class="cell" transform="translate(0, 63)"><rect class="swatch" height="15" width="15" style="fill: rgb(214, 39, 40);"/><text class="label" transform="translate( 20, 12.5)" font-family="&quot;Arial&quot;, sans-serif" font-size="10px"><tspan x="0" dy="0em">Ejercicio</tspan></text></g><g class="cell" transform="translate(0, 84)"><rect class="swatch" height="15" width="15" style="fill: rgb(148, 103, 189);"/><text class="label" transform="translate( 20, 12.5)" font-family="&quot;Arial&quot;, sans-serif" font-size="10px"><tspan x="0" dy="0em">Esparcimiento</tspan></text></g><g class="cell" transform="translate(0, 105)"><rect class="swatch" height="15" width="15" style="fill: rgb(140, 86, 75);"/><text class="label" transform="translate( 20, 12.5)" font-family="&quot;Arial&quot;, sans-serif" font-size="10px"><tspan x="0" dy="0em">Meditacion</tspan></text></g></g><text class="legendTitle" font-family="&quot;Arial&quot;, sans-serif" font-size="12px" font-weight="bold"><tspan x="0" dy="0em">key</tspan></text></g></g></g></svg>